<?xml version="1.0" encoding="UTF-8"?>
<svg xmlns="http://www.w3.org/2000/svg" xmlns:xlink="http://www.w3.org/1999/xlink" width="600" height="400" viewBox="0 0 600 400">
<rect x="-60" y="-40" width="720" height="480" fill="rgb(100%, 100%, 100%)" fill-opacity="1"/>
<path fill-rule="nonzero" fill="rgb(0%, 0%, 0%)" fill-opacity="1" d="M 438.675781 352.542969 L 452.542969 361.785156 L 477.964844 323.652344 L 464.097656 314.40625 L 438.675781 352.542969 "/>
<path fill-rule="nonzero" fill="rgb(0%, 0%, 0%)" fill-opacity="1" d="M 417.875 338.675781 L 431.742188 347.917969 L 457.164062 309.785156 L 443.296875 300.539062 L 417.875 338.675781 "/>
<path fill-rule="nonzero" fill="rgb(0%, 0%, 0%)" fill-opacity="1" d="M 397.074219 324.808594 L 410.941406 334.050781 L 436.363281 295.917969 L 422.496094 286.671875 L 397.074219 324.808594 "/>
<path fill-rule="nonzero" fill="rgb(0%, 0%, 0%)" fill-opacity="1" d="M 494.144531 269.335938 L 468.722656 307.472656 L 482.589844 316.71875 L 508.011719 278.582031 L 494.144531 269.335938 "/>
<path fill-rule="nonzero" fill="rgb(0%, 0%, 0%)" fill-opacity="1" d="M 447.921875 293.605469 L 461.789062 302.851562 L 487.210938 264.714844 L 473.34375 255.46875 L 447.921875 293.605469 "/>
<path fill-rule="nonzero" fill="rgb(0%, 0%, 0%)" fill-opacity="1" d="M 427.117188 279.738281 L 440.984375 288.984375 L 466.410156 250.847656 L 452.542969 241.601562 L 427.117188 279.738281 "/>
<path fill-rule="nonzero" fill="rgb(0%, 0%, 0%)" fill-opacity="1" d="M 133.589844 250.847656 L 189.058594 334.050781 L 202.925781 324.808594 L 147.457031 241.601562 L 133.589844 250.847656 "/>
<path fill-rule="nonzero" fill="rgb(0%, 0%, 0%)" fill-opacity="1" d="M 168.257812 347.917969 L 182.125 338.675781 L 156.703125 300.539062 L 142.835938 309.785156 L 168.257812 347.917969 "/>
<path fill-rule="nonzero" fill="rgb(0%, 0%, 0%)" fill-opacity="1" d="M 138.210938 302.851562 L 152.078125 293.605469 L 126.65625 255.46875 L 112.789062 264.714844 L 138.210938 302.851562 "/>
<path fill-rule="nonzero" fill="rgb(0%, 0%, 0%)" fill-opacity="1" d="M 147.457031 361.785156 L 161.324219 352.542969 L 105.855469 269.335938 L 91.988281 278.582031 L 147.457031 361.785156 "/>
<path fill-rule="nonzero" fill="rgb(0%, 0%, 0%)" fill-opacity="1" d="M 494.144531 130.664062 L 508.011719 121.417969 L 482.589844 83.28125 L 468.722656 92.527344 L 494.144531 130.664062 "/>
<path fill-rule="nonzero" fill="rgb(0%, 0%, 0%)" fill-opacity="1" d="M 438.675781 47.457031 L 464.097656 85.59375 L 477.964844 76.347656 L 452.542969 38.210938 L 438.675781 47.457031 "/>
<path fill-rule="nonzero" fill="rgb(0%, 0%, 0%)" fill-opacity="1" d="M 473.34375 144.53125 L 487.210938 135.285156 L 431.742188 52.078125 L 417.875 61.324219 L 473.34375 144.53125 "/>
<path fill-rule="nonzero" fill="rgb(0%, 0%, 0%)" fill-opacity="1" d="M 452.542969 158.398438 L 466.410156 149.152344 L 440.984375 111.015625 L 427.117188 120.261719 L 452.542969 158.398438 "/>
<path fill-rule="nonzero" fill="rgb(0%, 0%, 0%)" fill-opacity="1" d="M 422.496094 113.328125 L 436.363281 104.082031 L 410.941406 65.949219 L 397.074219 75.191406 L 422.496094 113.328125 "/>
<path fill-rule="nonzero" fill="rgb(0%, 0%, 0%)" fill-opacity="1" d="M 189.058594 65.949219 L 133.589844 149.152344 L 147.457031 158.398438 L 202.925781 75.191406 L 189.058594 65.949219 "/>
<path fill-rule="nonzero" fill="rgb(0%, 0%, 0%)" fill-opacity="1" d="M 112.789062 135.285156 L 126.65625 144.53125 L 182.125 61.324219 L 168.257812 52.078125 L 112.789062 135.285156 "/>
<path fill-rule="nonzero" fill="rgb(0%, 0%, 0%)" fill-opacity="1" d="M 91.988281 121.417969 L 105.855469 130.664062 L 161.324219 47.457031 L 147.457031 38.210938 L 91.988281 121.417969 "/>
<path fill-rule="nonzero" fill="rgb(0%, 20.384216%, 47.068787%)" fill-opacity="1" d="M 216.796875 144.53125 C 186.160156 190.484375 198.578125 252.570312 244.53125 283.203125 C 290.484375 313.839844 352.570312 301.421875 383.203125 255.46875 C 398.523438 232.492188 392.3125 201.449219 369.335938 186.132812 C 346.359375 170.816406 315.316406 177.023438 300 200 C 284.683594 222.976562 253.640625 229.183594 230.660156 213.867188 C 207.6875 198.550781 201.476562 167.507812 216.796875 144.53125 "/>
<path fill-rule="nonzero" fill="rgb(77.734375%, 4.704285%, 18.821716%)" fill-opacity="1" d="M 216.796875 144.53125 C 201.476562 167.507812 207.6875 198.550781 230.660156 213.867188 C 253.640625 229.183594 284.683594 222.976562 300 200 C 315.316406 177.023438 346.359375 170.816406 369.335938 186.132812 C 392.3125 201.449219 398.523438 232.492188 383.203125 255.46875 C 413.839844 209.515625 401.421875 147.429688 355.46875 116.796875 C 309.515625 86.160156 247.429688 98.578125 216.796875 144.53125 "/>
</svg>
